<svg width="40" height="40" viewBox="0 0 40 40" fill="none" xmlns="http://www.w3.org/2000/svg">
<rect width="40" height="40" fill="black"/>
<g clip-path="url(#clip0_79_528)">
<path d="M26.9855 17.41C26.9504 16.613 26.8215 16.0651 26.6369 15.5903C26.4464 15.0863 26.1534 14.6351 25.7695 14.26C25.3944 13.8791 24.9402 13.5831 24.442 13.3956C23.9645 13.211 23.4194 13.0821 22.6224 13.0469C21.8194 13.0088 21.5645 13 19.528 13C17.4915 13 17.2366 13.0088 16.4366 13.044C15.6396 13.0791 15.0916 13.2081 14.617 13.3926C14.1129 13.5831 13.6617 13.8761 13.2866 14.26C12.9056 14.6351 12.6097 15.0893 12.4221 15.5874C12.2375 16.0651 12.1086 16.6101 12.0735 17.4071C12.0354 18.21 12.0266 18.4649 12.0266 20.5015C12.0266 22.538 12.0354 22.7929 12.0705 23.5929C12.1056 24.3899 12.2346 24.9378 12.4193 25.4126C12.6097 25.9166 12.9056 26.3678 13.2866 26.7429C13.6617 27.1239 14.1158 27.4199 14.614 27.6073C15.0916 27.792 15.6366 27.9209 16.4337 27.956C17.2336 27.9913 17.4886 28 19.5251 28C21.5617 28 21.8166 27.9913 22.6166 27.956C23.4136 27.9209 23.9615 27.792 24.4362 27.6073C25.4443 27.2176 26.2413 26.4206 26.631 25.4126C26.8155 24.935 26.9445 24.3899 26.9797 23.5929C27.0148 22.7929 27.0236 22.538 27.0236 20.5015C27.0236 18.4649 27.0206 18.21 26.9855 17.41ZM25.6347 23.5343C25.6025 24.2668 25.4794 24.6624 25.3768 24.9262C25.1248 25.5796 24.6062 26.0983 23.9527 26.3503C23.689 26.4529 23.2905 26.5759 22.5608 26.6081C21.7697 26.6433 21.5324 26.652 19.531 26.652C17.5296 26.652 17.2893 26.6433 16.501 26.6081C15.7685 26.5759 15.3729 26.4529 15.1092 26.3503C14.784 26.2301 14.488 26.0397 14.2477 25.7906C13.9986 25.5473 13.8082 25.2543 13.688 24.9291C13.5854 24.6654 13.4624 24.2668 13.4302 23.5373C13.395 22.7461 13.3863 22.5087 13.3863 20.5073C13.3863 18.5059 13.395 18.2657 13.4302 17.4775C13.4624 16.7449 13.5854 16.3493 13.688 16.0856C13.8082 15.7603 13.9986 15.4644 14.2507 15.224C14.4938 14.9749 14.7868 14.7845 15.1121 14.6644C15.3759 14.5619 15.7744 14.4388 16.504 14.4065C17.2952 14.3714 17.5326 14.3626 19.5338 14.3626C21.5382 14.3626 21.7755 14.3714 22.5638 14.4065C23.2964 14.4388 23.6919 14.5619 23.9557 14.6644C24.2809 14.7845 24.5769 14.9749 24.8171 15.224C25.0662 15.4673 25.2567 15.7603 25.3768 16.0856C25.4794 16.3493 25.6025 16.7478 25.6347 17.4775C25.6699 18.2686 25.6787 18.5059 25.6787 20.5073C25.6787 22.5087 25.6699 22.7431 25.6347 23.5343Z" fill="white"/>
<path d="M19.5278 16.6482C17.4005 16.6482 15.6745 18.3741 15.6745 20.5015C15.6745 22.6289 17.4005 24.3548 19.5278 24.3548C21.6552 24.3548 23.3811 22.6289 23.3811 20.5015C23.3811 18.3741 21.6552 16.6482 19.5278 16.6482ZM19.5278 23.001C18.1477 23.001 17.0283 21.8817 17.0283 20.5015C17.0283 19.1213 18.1477 18.002 19.5278 18.002C20.908 18.002 22.0273 19.1213 22.0273 20.5015C22.0273 21.8817 20.908 23.001 19.5278 23.001Z" fill="white"/>
<path d="M24.433 16.496C24.433 16.9928 24.0302 17.3956 23.5334 17.3956C23.0366 17.3956 22.6338 16.9928 22.6338 16.496C22.6338 15.9991 23.0366 15.5964 23.5334 15.5964C24.0302 15.5964 24.433 15.9991 24.433 16.496Z" fill="white"/>
</g>
<defs>
<clipPath id="clip0_79_528">
<rect width="15" height="15" fill="white" transform="translate(12 13)"/>
</clipPath>
</defs>
</svg>
