<svg width="30" height="30" viewBox="0 0 30 30" fill="none" xmlns="http://www.w3.org/2000/svg">
<path d="M23.7891 19.4531C22.0526 19.4531 20.5096 20.297 19.5482 21.596L11.2706 17.3658C11.4095 16.894 11.4844 16.3951 11.4844 15.8789C11.4844 15.1798 11.3473 14.5123 11.0992 13.9012L19.7746 8.68881C20.7425 9.82494 22.183 10.5469 23.7891 10.5469C26.6968 10.5469 29.0625 8.18121 29.0625 5.27344C29.0625 2.36566 26.6968 0 23.7891 0C20.8813 0 18.5156 2.36566 18.5156 5.27344C18.5156 5.94551 18.6422 6.58846 18.8725 7.18008L10.1754 12.4055C9.20813 11.3029 7.78951 10.6055 6.21094 10.6055C3.30316 10.6055 0.9375 12.9711 0.9375 15.8789C0.9375 18.7867 3.30316 21.1523 6.21094 21.1523C7.9759 21.1523 9.54094 20.2807 10.4987 18.9454L18.7522 23.1632C18.5985 23.6574 18.5156 24.1825 18.5156 24.7266C18.5156 27.6343 20.8813 30 23.7891 30C26.6968 30 29.0625 27.6343 29.0625 24.7266C29.0625 21.8188 26.6968 19.4531 23.7891 19.4531ZM23.7891 1.75781C25.7276 1.75781 27.3047 3.33492 27.3047 5.27344C27.3047 7.21195 25.7276 8.78906 23.7891 8.78906C21.8505 8.78906 20.2734 7.21195 20.2734 5.27344C20.2734 3.33492 21.8505 1.75781 23.7891 1.75781ZM6.21094 19.3945C4.27242 19.3945 2.69531 17.8174 2.69531 15.8789C2.69531 13.9404 4.27242 12.3633 6.21094 12.3633C8.14945 12.3633 9.72656 13.9404 9.72656 15.8789C9.72656 17.8174 8.14945 19.3945 6.21094 19.3945ZM23.7891 28.2422C21.8505 28.2422 20.2734 26.6651 20.2734 24.7266C20.2734 22.788 21.8505 21.2109 23.7891 21.2109C25.7276 21.2109 27.3047 22.788 27.3047 24.7266C27.3047 26.6651 25.7276 28.2422 23.7891 28.2422Z" fill="black"/>
</svg>
