<svg width="40" height="40" viewBox="0 0 40 40" fill="none" xmlns="http://www.w3.org/2000/svg">
<rect width="40" height="40" fill="black"/>
<path d="M28.4545 15.4428C27.8054 15.6875 27.1137 15.8497 26.3927 15.9284C27.1345 15.5478 27.7007 14.9497 27.9668 14.2287C27.2752 14.5831 26.5116 14.8334 25.6978 14.9731C25.041 14.3722 24.105 14 23.0839 14C21.1029 14 19.508 15.3819 19.508 17.0759C19.508 17.3197 19.532 17.5541 19.5909 17.7772C16.616 17.6525 13.9836 16.4272 12.2153 14.5606C11.9065 15.0209 11.7255 15.5478 11.7255 16.115C11.7255 17.18 12.3636 18.1241 13.3149 18.6706C12.74 18.6613 12.176 18.5178 11.6982 18.2919C11.6982 18.3012 11.6982 18.3134 11.6982 18.3256C11.6982 19.82 12.9385 21.0612 14.5651 21.3472C14.2738 21.4156 13.9564 21.4484 13.6269 21.4484C13.3978 21.4484 13.1665 21.4372 12.9494 21.3959C13.4131 22.6137 14.7287 23.5091 16.2931 23.5381C15.0756 24.3566 13.5298 24.8497 11.8564 24.8497C11.5629 24.8497 11.2815 24.8384 11 24.8075C12.5851 25.6859 14.4636 26.1875 16.4894 26.1875C23.0741 26.1875 26.6741 21.5 26.6741 17.4369C26.6741 17.3009 26.6687 17.1697 26.661 17.0394C27.3712 16.6063 27.9679 16.0653 28.4545 15.4428Z" fill="white"/>
</svg>
